<svg width="160" height="20" viewBox="0 0 160 20" xmlns="http://www.w3.org/2000/svg"><path d="M28.65.504c.647.215 1.255.61 1.805 1.024.627.464.991 1.203.977 1.983.006 5.223.008 10.447.006 15.67 0 .061-.01.122-.018.2h-6.37V5.974l-.077-.02c-.056.117-.119.228-.169.351-1.557 3.681-3.113 7.362-4.668 11.044-.45 1.06-1.21 1.807-2.316 2.167-.216.07-.441.108-.668.111-.813.013-1.627-.014-2.44.01-1.306.037-2.259-.576-2.992-1.586a4.836 4.836 0 0 1-.514-.973A4486.729 4486.729 0 0 1 6.716 6.37c-.06-.16-.15-.305-.268-.428v13.439H.008v-.489c0-5.02.01-10.04-.008-15.061-.005-1.133.458-1.978 1.357-2.617C2.383.485 3.552.182 4.79.083 6.294-.038 7.785.03 9.24.482c1.254.39 2.1 1.154 2.54 2.45 1.15 3.386 2.371 6.747 3.569 10.12.05.14.108.277.186.476.45-1.139.88-2.222 1.307-3.306l.577-1.458.386-.971c.643-1.62 1.285-3.24 1.896-4.872.478-1.274 1.34-2.082 2.614-2.447 2.11-.605 4.241-.67 6.337.03ZM48.357.308v13.854c0 .557.12.755.669.898.403.11.819.172 1.237.18 1.944.007 3.889-.015 5.83-.029a1.63 1.63 0 0 0 .266-.026c.987-.168 1.158-.36 1.161-1.337V.31h6.738c.007.14.019.273.019.407V14.52c-.004.406-.03.812-.076 1.215-.11 1.002-.642 1.743-1.45 2.314-1.168.827-2.504 1.151-3.897 1.273a26.56 26.56 0 0 1-2.284.076c-2.796.008-5.591.014-8.388-.007-1.327-.01-2.637-.17-3.88-.676a7.178 7.178 0 0 1-1.013-.52c-1.068-.652-1.627-1.608-1.645-2.868-.005-.343-.024-.686-.024-1.029V.841l-.004-.533h6.741Zm32.791 0v13.854c0 .557.12.755.67.898.402.11.818.172 1.236.18 1.944.007 3.89-.015 5.831-.029a1.63 1.63 0 0 0 .265-.026c.987-.168 1.158-.36 1.162-1.337V.31h6.737c.007.14.02.273.02.407V14.52c-.005.406-.03.812-.077 1.215-.109 1.002-.642 1.743-1.449 2.314-1.168.827-2.504 1.151-3.897 1.273a26.56 26.56 0 0 1-2.284.076c-2.796.008-5.592.014-8.389-.007-1.326-.01-2.637-.17-3.88-.676a7.178 7.178 0 0 1-1.013-.52c-1.067-.652-1.626-1.608-1.645-2.868-.005-.343-.023-.686-.023-1.029V.841l-.004-.533h6.74ZM159.52.293h.465V4.36c-.108.009-.217.023-.326.023-3.774.023-7.55.04-11.321.077a4.58 4.58 0 0 0-1.122.16c-.381.103-.573.392-.56.805.01.355 0 .711 0 1.068 0 .526.189.851.694 1.01.41.134.836.207 1.266.219 1.817.026 3.634.005 5.451.02 1.27.01 2.505.241 3.66.771.462.207.895.47 1.291.785.667.542.977 1.284.98 2.145.005 1.296 0 2.592 0 3.889.005 1.202-.506 2.127-1.488 2.8-1.112.763-2.384 1.052-3.695 1.184-.694.07-1.395.082-2.093.083-4.092.007-8.185.007-12.278 0l-.48.004v-4.141h.457c3.635 0 7.27-.002 10.906-.006.278-.003.555-.043.822-.119.906-.254 1.11-.528 1.115-1.457v-.792c-.009-.472-.16-.724-.61-.853a4.126 4.126 0 0 0-1.086-.166c-1.804-.016-3.608-.008-5.414-.007-1.322 0-2.617-.17-3.808-.776a7.55 7.55 0 0 1-1.385-.927c-.723-.598-1.08-1.373-1.053-2.342.032-1.13.038-2.262 0-3.392-.05-1.462.65-2.468 1.849-3.179 1.067-.63 2.252-.872 3.467-.9 2.274-.052 4.548-.046 6.822-.053 2.491-.008 4.982 0 7.474 0ZM107.555.285c5.362 0 10.724.003 16.084.01 1.183 0 2.364.096 3.49.493.325.11.639.248.938.414.884.5 1.462 1.236 1.513 2.274.055 1.077.11 2.161.036 3.233-.09 1.337-.839 2.281-2.053 2.85-.076.037-.163.07-.244.105-.058.026-.114.053-.213.1l-.043.02-.023.01.42.152c1.53.563 2.265 1.606 2.276 3.238.005.648 0 1.297 0 1.943 0 1.73-.817 2.915-2.394 3.585-1.249.533-2.574.674-3.913.678-4.576.012-9.151.006-13.72.006l-2.42.007V.314c.088-.014.177-.024.266-.029Zm12.486 11.617h-2.122l-3.903.002.002 3.337h5.402l.503.001h1.135c1.444 0 1.85-.538 1.85-1.018s-.003-.712-.001-1.178c.002-.466-.391-1.141-1.833-1.143h-.612l-.132-.001h-.289Zm.128-7.525H117.567l-3.551.003.002 3.337H121.14c1.445.001 1.852-.538 1.852-1.018s-.004-.712-.002-1.178c.002-.466-.391-1.14-1.834-1.143H120.17Z" fill="#1a1a1a" fill-rule="nonzero"/></svg>